<?xml version="1.0" encoding="UTF-8"?>
<svg width="512" height="512" clip-rule="evenodd" fill-rule="evenodd" stroke-linejoin="round" stroke-miterlimit="1.4142" version="1.1" viewBox="0 0 512 512" xml:space="preserve" xmlns="http://www.w3.org/2000/svg"><rect id="badge.-small.-light" y=".321" width="1260" height="280" fill="none"/><g transform="matrix(2.9073 0 0 2.9073 -151.42 -153.81)"><g fill="#8c8c8c"><path d="m225.66 166.22c1.339 0 2.426-1.087 2.426-2.426v-4.852c0-1.338-1.087-2.425-2.426-2.425h-171.15c-1.339 0-2.426 1.087-2.426 2.425v4.852c0 1.339 1.087 2.426 2.426 2.426z"/><path d="m225.66 125.52c1.339 0 2.426-1.087 2.426-2.426v-4.851c0-1.339-1.087-2.426-2.426-2.426h-171.15c-1.339 0-2.426 1.087-2.426 2.426v4.851c0 1.339 1.087 2.426 2.426 2.426z"/><path d="m225.66 145.87c1.339 0 2.426-1.087 2.426-2.426v-4.851c0-1.339-1.087-2.426-2.426-2.426h-171.15c-1.339 0-2.426 1.087-2.426 2.426v4.851c0 1.339 1.087 2.426 2.426 2.426z"/><path d="m225.66 105.16c1.339 0 2.426-1.086 2.426-2.425v-4.852c0-1.339-1.087-2.426-2.426-2.426h-171.15c-1.339 0-2.426 1.087-2.426 2.426v4.852c0 1.339 1.087 2.425 2.426 2.425z"/><path d="m225.66 186.57c1.339 0 2.426-1.087 2.426-2.425v-4.852c0-1.339-1.087-2.426-2.426-2.426h-171.15c-1.339 0-2.426 1.087-2.426 2.426v4.852c0 1.338 1.087 2.425 2.426 2.425z"/><path d="m114.88 226.59c0 1.338 1.087 2.425 2.425 2.425h4.852c1.339 0 2.426-1.087 2.426-2.425v-171.15c0-1.339-1.087-2.426-2.426-2.426h-4.852c-1.338 0-2.425 1.087-2.425 2.426z"/><path d="m155.58 226.59c0 1.338 1.087 2.425 2.426 2.425h4.851c1.339 0 2.426-1.087 2.426-2.425v-171.15c0-1.339-1.087-2.426-2.426-2.426h-4.851c-1.339 0-2.426 1.087-2.426 2.426z"/><path d="m135.23 226.59c0 1.338 1.087 2.425 2.426 2.425h4.852c1.338 0 2.425-1.087 2.425-2.425v-171.15c0-1.339-1.087-2.426-2.425-2.426h-4.852c-1.339 0-2.426 1.087-2.426 2.426z"/><path d="m175.94 226.59c0 1.338 1.087 2.425 2.426 2.425h4.851c1.339 0 2.426-1.087 2.426-2.425v-171.15c0-1.339-1.087-2.426-2.426-2.426h-4.851c-1.339 0-2.426 1.087-2.426 2.426z"/><path d="m94.525 226.59c0 1.338 1.087 2.425 2.426 2.425h4.851c1.339 0 2.426-1.087 2.426-2.425v-171.15c0-1.339-1.087-2.426-2.426-2.426h-4.851c-1.339 0-2.426 1.087-2.426 2.426z"/></g><path d="m189.07 211c11.587 0 20.994-9.407 20.994-20.994v-97.973c0-11.587-9.407-20.995-20.994-20.995h-97.974c-11.587 0-20.994 9.408-20.994 20.995v97.973c0 11.587 9.407 20.994 20.994 20.994z" fill="#333"/><path d="m180.03 133.06c0 5.108-0.801 9.686-2.403 13.734s-3.885 7.5-6.851 10.357c-2.965 2.857-6.558 5.065-10.779 6.624-4.221 1.558-8.994 2.402-14.319 2.532v15.52c0 0.346-0.086 0.649-0.259 0.909-0.174 0.26-0.477 0.465-0.91 0.617-0.432 0.151-1.006 0.271-1.72 0.357-0.715 0.087-1.613 0.13-2.695 0.13s-1.981-0.043-2.695-0.13c-0.714-0.086-1.277-0.206-1.688-0.357-0.412-0.152-0.715-0.357-0.909-0.617-0.195-0.26-0.293-0.563-0.293-0.909v-15.52c-5.411-0.13-10.238-0.909-14.48-2.338-4.243-1.428-7.836-3.495-10.78-6.201s-5.195-6.028-6.753-9.968c-1.559-3.939-2.338-8.463-2.338-13.571v-33.183c0-0.303 0.097-0.584 0.292-0.844s0.498-0.476 0.909-0.649c0.412-0.173 0.974-0.303 1.689-0.39 0.714-0.086 1.612-0.13 2.695-0.13 1.082 0 1.98 0.044 2.694 0.13 0.715 0.087 1.288 0.217 1.721 0.39s0.736 0.389 0.909 0.649 0.26 0.541 0.26 0.844v32.209c0 3.593 0.476 6.829 1.429 9.708 0.952 2.878 2.381 5.324 4.285 7.337 1.905 2.013 4.319 3.572 7.241 4.676s6.331 1.699 10.227 1.786v-55.716c0-0.303 0.098-0.584 0.293-0.844 0.194-0.26 0.519-0.476 0.974-0.649 0.454-0.173 1.039-0.303 1.753-0.39 0.714-0.086 1.569-0.13 2.565-0.13 1.082 0 1.98 0.044 2.695 0.13 0.714 0.087 1.288 0.217 1.72 0.39 0.433 0.173 0.736 0.389 0.91 0.649 0.173 0.26 0.259 0.541 0.259 0.844v55.716c3.896-0.044 7.295-0.639 10.195-1.786 2.901-1.147 5.314-2.727 7.241-4.741 1.926-2.013 3.376-4.437 4.35-7.272 0.974-2.836 1.461-5.985 1.461-9.449v-32.468c0-0.303 0.087-0.584 0.26-0.844s0.476-0.476 0.909-0.649 0.996-0.303 1.689-0.39c0.692-0.086 1.601-0.13 2.727-0.13 1.039 0 1.916 0.044 2.63 0.13 0.714 0.087 1.277 0.217 1.688 0.39 0.412 0.173 0.715 0.389 0.909 0.649 0.195 0.26 0.293 0.541 0.293 0.844z" fill="#fff" fill-rule="nonzero"/><path d="m180.03 133.06c0 5.108-0.801 9.686-2.403 13.734s-3.885 7.5-6.851 10.357c-2.965 2.857-6.558 5.065-10.779 6.624-4.221 1.558-8.994 2.402-14.319 2.532v15.52c0 0.346-0.086 0.649-0.259 0.909-0.174 0.26-0.477 0.465-0.91 0.617-0.432 0.151-1.006 0.271-1.72 0.357-0.715 0.087-1.613 0.13-2.695 0.13s-1.981-0.043-2.695-0.13c-0.714-0.086-1.277-0.206-1.688-0.357-0.412-0.152-0.715-0.357-0.909-0.617-0.195-0.26-0.293-0.563-0.293-0.909v-15.52c-5.411-0.13-10.238-0.909-14.48-2.338-4.243-1.428-7.836-3.495-10.78-6.201s-5.195-6.028-6.753-9.968c-1.559-3.939-2.338-8.463-2.338-13.571v-33.183c0-0.303 0.097-0.584 0.292-0.844s0.498-0.476 0.909-0.649c0.412-0.173 0.974-0.303 1.689-0.39 0.714-0.086 1.612-0.13 2.695-0.13 1.082 0 1.98 0.044 2.694 0.13 0.715 0.087 1.288 0.217 1.721 0.39s0.736 0.389 0.909 0.649 0.26 0.541 0.26 0.844v32.209c0 3.593 0.476 6.829 1.429 9.708 0.952 2.878 2.381 5.324 4.285 7.337 1.905 2.013 4.319 3.572 7.241 4.676s6.331 1.699 10.227 1.786v-55.716c0-0.303 0.098-0.584 0.293-0.844 0.194-0.26 0.519-0.476 0.974-0.649 0.454-0.173 1.039-0.303 1.753-0.39 0.714-0.086 1.569-0.13 2.565-0.13 1.082 0 1.98 0.044 2.695 0.13 0.714 0.087 1.288 0.217 1.72 0.39 0.433 0.173 0.736 0.389 0.91 0.649 0.173 0.26 0.259 0.541 0.259 0.844v55.716c3.896-0.044 7.295-0.639 10.195-1.786 2.901-1.147 5.314-2.727 7.241-4.741 1.926-2.013 3.376-4.437 4.35-7.272 0.974-2.836 1.461-5.985 1.461-9.449v-32.468c0-0.303 0.087-0.584 0.26-0.844s0.476-0.476 0.909-0.649 0.996-0.303 1.689-0.39c0.692-0.086 1.601-0.13 2.727-0.13 1.039 0 1.916 0.044 2.63 0.13 0.714 0.087 1.277 0.217 1.688 0.39 0.412 0.173 0.715 0.389 0.909 0.649 0.195 0.26 0.293 0.541 0.293 0.844z" fill="#fff" fill-rule="nonzero"/></g></svg>
